<svg id="svg_logo" width="88" height="86" version="1.1" viewBox="0 0 88 86" xmlns="http://www.w3.org/2000/svg">
 <defs id="defs2">
  <filter id="filter4427" color-interpolation-filters="sRGB">
   <feGaussianBlur id="feGaussianBlur4405" result="result1" stdDeviation="5"/>
   <feColorMatrix id="feColorMatrix4407" result="result10" values="1 0 0 0 0 0 1 0 0 0 0 0 1 0 0 0 0 0 5 -4 "/>
   <feComposite id="feComposite4409" in="result10" in2="result10" operator="atop" result="result8"/>
   <feComposite id="feComposite4411" in="result1" in2="result8" operator="in" result="fbSourceGraphic"/>
   <feGaussianBlur id="feGaussianBlur4413" in="fbSourceGraphic" result="result0" stdDeviation="5"/>
   <feSpecularLighting id="feSpecularLighting4417" lighting-color="#ffffff" in="result0" result="result1" specularConstant="2.5" specularExponent="55" surfaceScale="2">
    <feDistantLight id="feDistantLight4415" azimuth="225" elevation="60"/>
   </feSpecularLighting>
   <feComposite id="feComposite4419" in="result1" in2="fbSourceGraphic" operator="in" result="result2"/>
   <feComposite id="feComposite4421" in="fbSourceGraphic" in2="result2" k2="1" k3="1" operator="arithmetic" result="result4"/>
   <feComposite id="feComposite4423" in2="result4" operator="in" result="result9"/>
   <feBlend id="feBlend4425" in="result9" in2="result9" mode="multiply"/>
  </filter>
 </defs>
 <g id="layer1" transform="translate(-52 -94)">
  <ellipse id="circle" cx="98" cy="134" rx="44" ry="43" fill="#fd5" filter="url(#filter4427)" stroke="#000" stroke-linecap="round" stroke-linejoin="round" stroke-width="1.2"/>
  <path id="arrow-left" d="m78 116-21 16 21 16" fill="none" stroke="#000" stroke-linecap="round" stroke-width="3"/>
  <path id="arrow-right" d="m117 116 21 16-21 16" fill="none" stroke="#3333e9" stroke-linecap="round" stroke-width="3"/>
  <path id="slash" d="m88 150 18-37" fill="#fd5" stroke="#0000ec" stroke-width="2.1"/>
  <path id="s-name" d="m91 116c-2.5.59-4.8 1.6-7.2 2.5-4.1 1.5-9.4 2.6-11 6.6-.57 1.3-.11 2.5.75 3.6 1.4 1.3 3.3 1.5 5.1 1.8 2 .24 4.1.38 6 1 .69.36 1.8 1.1 2.3 1.9-.64.29-1.3.59-1.9.9-3.2 1.6-6.3 3.3-9.3 5.1-.36.21-.63.53-.95.78-.13.13-.25.26-.38.39l5.7-2.2c-.72.4-1.6.89-2.5 1.4 1.8-.92-.5.32 1.4-.71 1.8-.87 3.6-1.7 5.4-2.6.75-.35 1.6-.67 2.3-1.1 2.5-1.4 5-2.7 7.4-4.2.17-.1.24-.32.29-.51.049-.19-.00063-.39-.00071-.58-.58-1.3-1.8-2.2-2.9-2.9-2-.67-4.1-.87-6.2-1.1-1.6-.26-3.4-.38-4.7-1.4-.61-.75-.85-1.5-.53-2.3.82-.34 1.6-.68 2.5-.98 1.8-.66.49-.11 2.1-.59.2-.063.4-.15.6-.23zm-4.3 18c.012.041.024.081.032.12-.52.21-1 .44-1.4.63.33-.17.78-.42 1.4-.75zm-2.7 2.1c-.057.037-.25.15-.56.34.4-.25.66-.4.56-.34z" fill="#f60" stroke="#ec3f3f" stroke-linecap="round" stroke-linejoin="round" stroke-width="1.3"/>
  <g id="t-name" transform="translate(.64 -.64)" fill="#f60" stroke="#ec3f3f" stroke-linecap="round" stroke-linejoin="round">
   <path id="path2902" d="m105 126c1.7-.1 3.3-.16 5-.2 1.5-.041 3-.064 4.5-.087.76-.008 1.5-.027 2.3-.022.54-.007 1.1.00053 1.6-.012.31-.017.61-.005.92.00053.5.016 1-.003 1.5.004.53-.022 1.1-.22 1.6-.33 1.9-.21 2-1.1-3.5 2.7l4.4-2.2c-3.5 2.5-2.8 2.6-4.7 3-.54.12-1.1.28-1.6.25-.5.006-1-.013-1.5.004-.31.005-.62.018-.92.00053-.53-.013-1.1-.005-1.6-.014-.74.003-1.5-.018-2.2-.025-1.5-.018-2.9-.024-4.4.008-1.7.047-3.4.085-5.1.41l3.8-3.5z" stroke-width=".89"/>
   <path id="path2904" d="m114 131c-.85 1.6-1.5 3.2-2.2 4.9-.82 2.1-1.4 4.2-2.2 6.3-.4 1-.7 2-1.2 3-.27.55-.61 1.1-.87 1.6-.27.49-.46 1-.67 1.5-.082.19-.17.38-.24.58l-5.4 2.5c.065-.22.11-.45.24-.64.24-.5.38-1 .67-1.5.25-.58.56-1.1.87-1.7.17-.35.4-.67.56-1 .29-.66.51-1.3.81-2 .83-2.1 1.5-4.2 2.3-6.3.6-1.6 1.3-3.3 1.9-4.9l5.4-2.4z"/>
  </g>
  <rect id="rect4429" x="53" y="93" width="88" height="79" fill="none"/>
 </g>
</svg>
