<?xml version="1.0" encoding="UTF-8" standalone="no"?>
<!-- Created with Inkscape (http://www.inkscape.org/) -->

<svg
   xmlns:osb="http://www.openswatchbook.org/uri/2009/osb"
   xmlns:dc="http://purl.org/dc/elements/1.1/"
   xmlns:cc="http://creativecommons.org/ns#"
   xmlns:rdf="http://www.w3.org/1999/02/22-rdf-syntax-ns#"
   xmlns:svg="http://www.w3.org/2000/svg"
   xmlns="http://www.w3.org/2000/svg"
   xmlns:sodipodi="http://sodipodi.sourceforge.net/DTD/sodipodi-0.dtd"
   xmlns:inkscape="http://www.inkscape.org/namespaces/inkscape"
   width="88.237808mm"
   height="86.246078mm"
   viewBox="0 0 88.237808 86.246078"
   version="1.1"
   id="svg8"
   inkscape:version="0.92.2 2405546, 2018-03-11"
   sodipodi:docname="logo.svg"
   inkscape:export-filename="/home/richard/free/logo.png"
   inkscape:export-xdpi="96"
   inkscape:export-ydpi="96">
  <defs
     id="defs2">
    <linearGradient
       id="linearGradient3480"
       osb:paint="solid">
      <stop
         style="stop-color:#ffdd55;stop-opacity:1;"
         offset="0"
         id="stop3478" />
    </linearGradient>
    <filter
       inkscape:label="Molten Metal"
       inkscape:menu="Bevels"
       inkscape:menu-tooltip="Melting parts of object together, with a glossy bevel and a glow"
       style="color-interpolation-filters:sRGB;"
       id="filter4427">
      <feGaussianBlur
         stdDeviation="5"
         result="result1"
         id="feGaussianBlur4405" />
      <feColorMatrix
         result="result10"
         values="1 0 0 0 0 0 1 0 0 0 0 0 1 0 0 0 0 0 5 -4 "
         id="feColorMatrix4407" />
      <feComposite
         operator="atop"
         in="result10"
         in2="result10"
         result="result8"
         id="feComposite4409" />
      <feComposite
         operator="in"
         result="fbSourceGraphic"
         in="result1"
         in2="result8"
         id="feComposite4411" />
      <feGaussianBlur
         result="result0"
         in="fbSourceGraphic"
         stdDeviation="5"
         id="feGaussianBlur4413" />
      <feSpecularLighting
         specularExponent="55"
         specularConstant="2.5"
         surfaceScale="2"
         lighting-color="rgb(255,255,255)"
         result="result1"
         in="result0"
         id="feSpecularLighting4417">
        <feDistantLight
           azimuth="225"
           elevation="60"
           id="feDistantLight4415" />
      </feSpecularLighting>
      <feComposite
         operator="in"
         result="result2"
         in="result1"
         in2="fbSourceGraphic"
         id="feComposite4419" />
      <feComposite
         k3="1"
         k2="1"
         operator="arithmetic"
         result="result4"
         in="fbSourceGraphic"
         in2="result2"
         id="feComposite4421" />
      <feComposite
         operator="in"
         in="result9"
         in2="result4"
         result="result9"
         id="feComposite4423" />
      <feBlend
         mode="multiply"
         in="result9"
         in2="result9"
         id="feBlend4425" />
    </filter>
  </defs>
  <sodipodi:namedview
     id="base"
     pagecolor="#ffffff"
     bordercolor="#666666"
     borderopacity="1.0"
     inkscape:pageopacity="0.0"
     inkscape:pageshadow="2"
     inkscape:zoom="0.59801139"
     inkscape:cx="121.00849"
     inkscape:cy="175.67832"
     inkscape:document-units="mm"
     inkscape:current-layer="layer1"
     showgrid="false"
     inkscape:window-width="1366"
     inkscape:window-height="707"
     inkscape:window-x="0"
     inkscape:window-y="0"
     inkscape:window-maximized="1"
     showborder="true">
    <inkscape:grid
       type="xygrid"
       id="grid20"
       originx="-52.466553"
       originy="-119.30448" />
  </sodipodi:namedview>
  <metadata
     id="metadata5">
    <rdf:RDF>
      <cc:Work
         rdf:about="">
        <dc:format>image/svg+xml</dc:format>
        <dc:type
           rdf:resource="http://purl.org/dc/dcmitype/StillImage" />
        <dc:title></dc:title>
      </cc:Work>
    </rdf:RDF>
  </metadata>
  <g
     inkscape:label="Camada 1"
     inkscape:groupmode="layer"
     id="layer1"
     transform="translate(-52.466553,-91.44944)">
    <ellipse
       style="opacity:1;fill:#ffdd55;fill-opacity:1;stroke:#000000;stroke-width:1.1901325;stroke-linecap:round;stroke-linejoin:round;stroke-miterlimit:4;stroke-dasharray:none;stroke-opacity:1;filter:url(#filter4427)"
       id="path2906"
       cx="96.585457"
       cy="134.57248"
       rx="43.523838"
       ry="42.527973" />
    <path
       style="fill:none;stroke:#000000;stroke-width:3;stroke-linecap:round;stroke-linejoin:miter;stroke-miterlimit:4;stroke-dasharray:none;stroke-opacity:1"
       d="m 76.586577,117.08333 -21.166667,15.875 21.166666,15.875"
       id="path22"
       inkscape:connector-curvature="0"
       sodipodi:nodetypes="ccc" />
    <path
       style="fill:none;fill-opacity:1;stroke:#3333e9;stroke-width:3;stroke-linecap:round;stroke-linejoin:miter;stroke-miterlimit:4;stroke-dasharray:none;stroke-opacity:1"
       d="m 116.41665,117.08333 21.16668,15.875 -21.16669,15.875"
       id="path22-3"
       inkscape:connector-curvature="0"
       sodipodi:nodetypes="ccc" />
    <path
       style="fill:#ffdd55;fill-opacity:1;stroke:#0000ec;stroke-width:2.09676313;stroke-linecap:butt;stroke-linejoin:miter;stroke-miterlimit:4;stroke-dasharray:none;stroke-opacity:1"
       d="M 86.658398,150.82506 105.12219,113.78339"
       id="path39"
       inkscape:connector-curvature="0" />
    <path
       style="opacity:1;fill:#ff6600;fill-opacity:1;stroke:#ec3f3f;stroke-width:1.34033334;stroke-linecap:round;stroke-linejoin:round;stroke-miterlimit:4;stroke-dasharray:none;stroke-opacity:1"
       d="m 89.958333,117.08333 c -2.484822,0.58938 -4.81345,1.62043 -7.174217,2.54434 -4.081885,1.50456 -9.369622,2.59026 -11.471394,6.56139 -0.570126,1.33431 -0.113304,2.48152 0.747889,3.56845 1.377839,1.28409 3.327092,1.46857 5.133427,1.7727 2.041406,0.24174 4.082103,0.38307 6.043192,1.01529 0.686358,0.36482 1.802987,1.09261 2.26346,1.88194 -0.641349,0.29384 -1.281812,0.58918 -1.916376,0.89653 -3.185834,1.5858 -6.2632,3.34702 -9.340829,5.12669 -0.357262,0.20658 -0.626511,0.52951 -0.9543,0.77707 -0.126929,0.1312 -0.253375,0.26241 -0.380306,0.39364 l 5.672074,-2.24301 c -0.721906,0.40306 -1.590506,0.88507 -2.537731,1.40824 1.76131,-0.91611 -0.50026,0.31842 1.356522,-0.70717 1.786342,-0.87447 3.602741,-1.67652 5.389318,-2.55113 0.753366,-0.35303 1.556005,-0.67179 2.281133,-1.07705 2.471163,-1.38111 4.976822,-2.70939 7.389109,-4.18333 0.168695,-0.1031 0.237308,-0.32016 0.286292,-0.50628 0.04929,-0.18729 -6.27e-4,-0.38642 -7.06e-4,-0.57959 -0.577466,-1.25059 -1.783563,-2.15529 -2.932178,-2.91082 -1.991106,-0.67373 -4.081742,-0.87032 -6.170431,-1.07978 -1.600848,-0.258 -3.394201,-0.37964 -4.719899,-1.35327 -0.605946,-0.75019 -0.845137,-1.47922 -0.531581,-2.29933 0.817876,-0.33861 1.634344,-0.68063 2.465629,-0.98136 1.818,-0.65769 0.490787,-0.10848 2.064113,-0.5918 0.204626,-0.0629 0.398149,-0.15476 0.597326,-0.23211 z m -4.296473,17.71331 c 0.01176,0.0407 0.02449,0.0814 0.0318,0.12214 -0.522866,0.2056 -1.01707,0.43589 -1.410242,0.62777 0.325969,-0.17404 0.777151,-0.4184 1.378433,-0.74993 z m -2.664262,2.06113 c -0.0571,0.0368 -0.246153,0.15026 -0.56339,0.33595 0.397218,-0.24769 0.663289,-0.40022 0.56339,-0.33595 z"
       id="path2897"
       inkscape:connector-curvature="0" />
    <path
       style="opacity:1;fill:#ff6600;fill-opacity:1;stroke:#ec3f3f;stroke-width:0.89395088;stroke-linecap:round;stroke-linejoin:round;stroke-miterlimit:4;stroke-dasharray:none;stroke-opacity:1"
       id="path2902"
       d="m 104.95286,126.01219 c 1.65476,-0.10402 3.31108,-0.15525 4.96734,-0.20318 1.48695,-0.0411 2.97412,-0.0641 4.4613,-0.0871 0.75748,-0.008 1.51488,-0.0271 2.2724,-0.0219 0.53531,-0.007 1.07061,5.3e-4 1.60587,-0.0118 0.30722,-0.0172 0.61461,-0.005 0.92192,5.3e-4 0.50087,0.0163 1.00184,-0.003 1.50267,0.004 0.53153,-0.0218 1.05565,-0.21562 1.58168,-0.33105 1.89844,-0.20732 2.0246,-1.0715 -3.45929,2.70333 0,0 4.42705,-2.15014 4.42705,-2.15014 v 0 c -3.5477,2.45472 -2.75217,2.63298 -4.72934,2.99165 -0.53872,0.11546 -1.07476,0.28202 -1.62596,0.2463 -0.50343,0.006 -1.007,-0.0126 -1.51046,0.004 -0.30776,0.005 -0.61564,0.018 -0.92327,5.3e-4 -0.52619,-0.013 -1.05244,-0.005 -1.57868,-0.0135 -0.73958,0.003 -1.47896,-0.018 -2.2185,-0.0254 -1.4526,-0.0178 -2.90543,-0.0241 -4.35794,0.008 -1.70116,0.0472 -3.41246,0.0854 -5.09721,0.40859 0,0 3.76042,-3.52186 3.76042,-3.52186 z"
       inkscape:connector-curvature="0" />
    <path
       style="opacity:1;fill:#ff6600;fill-opacity:1;stroke:#ec3f3f;stroke-width:1;stroke-linecap:round;stroke-linejoin:round;stroke-miterlimit:4;stroke-dasharray:none;stroke-opacity:1"
       id="path2904"
       d="m 113.61247,130.56982 c -0.84548,1.57814 -1.52583,3.24639 -2.17374,4.91463 -0.82046,2.05408 -1.42312,4.18496 -2.17857,6.2614 -0.40321,1.00066 -0.70479,2.04132 -1.1906,3.0068 -0.27236,0.55388 -0.60632,1.07636 -0.86864,1.63493 -0.26772,0.49144 -0.46009,1.01444 -0.67212,1.53056 -0.0819,0.19255 -0.17123,0.37935 -0.24286,0.57592 0,0 -5.35521,2.51887 -5.35521,2.51887 v 0 c 0.0646,-0.2193 0.11066,-0.44666 0.2371,-0.64152 0.24486,-0.50377 0.37693,-1.04921 0.67041,-1.52942 0.24629,-0.57788 0.55938,-1.11913 0.87001,-1.66356 0.17389,-0.35025 0.40276,-0.67022 0.56199,-1.02786 0.29224,-0.65637 0.51377,-1.34776 0.81429,-2.00124 0.82873,-2.06864 1.45828,-4.21387 2.25726,-6.29486 0.59903,-1.64467 1.27146,-3.25686 1.88162,-4.89614 0,0 5.38906,-2.38851 5.38906,-2.38851 z"
       inkscape:connector-curvature="0" />
    <rect
       style="opacity:1;fill:none;fill-opacity:1;stroke:none;stroke-width:13.06499958;stroke-miterlimit:4;stroke-dasharray:none;stroke-opacity:1"
       id="rect4429"
       width="87.868568"
       height="79.259819"
       x="52.169701"
       y="93.982895"
       inkscape:export-xdpi="96"
       inkscape:export-ydpi="96" />
  </g>
</svg>
